Coordinates
version=1
nRows=8
nColumns=63
inDegrees=yes

Units are S.I. units (second, meters, Newtons, ...)
If the header above contains a line with 'inDegrees', this indicates whether rotational values are in degrees (yes) or radians (no).

endheader
time	pelvis_tilt	pelvis_list	pelvis_rotation	pelvis_tx	pelvis_ty	pelvis_tz	hip_flexion_r	hip_adduction_r	hip_rotation_r	knee_angle_r	knee_angle_r_beta	ankle_angle_r	subtalar_angle_r	mtp_angle_r	hip_flexion_l	hip_adduction_l	hip_rotation_l	knee_angle_l	knee_angle_l_beta	ankle_angle_l	subtalar_angle_l	mtp_angle_l	L5_S1_Flex_Ext	L5_S1_Lat_Bending	L5_S1_axial_rotation	L4_L5_Flex_Ext	L4_L5_Lat_Bending	L4_L5_axial_rotation	L3_L4_Flex_Ext	L3_L4_Lat_Bending	L3_L4_axial_rotation	L2_L3_Flex_Ext	L2_L3_Lat_Bending	L2_L3_axial_rotation	L1_L2_Flex_Ext	L1_L2_Lat_Bending	L1_L2_axial_rotation	L1_T12_Flex_Ext	L1_T12_Lat_Bending	L1_T12_axial_rotation	Abs_r3	Abs_r2	Abs_r1	Abs_t1	Abs_t2	neck_flexion	neck_bending	neck_rotation	arm_flex_r	arm_add_r	arm_rot_r	elbow_flex_r	pro_sup_r	wrist_flex_r	wrist_dev_r	arm_flex_l	arm_add_l	arm_rot_l	elbow_flex_l	pro_sup_l	wrist_flex_l	wrist_dev_l
      3.51063830	      3.52951554	    -16.90997144	     99.10914744	      0.21459208	      0.82018314	      0.61520728	     12.64080030	      1.07742795	      7.01114018	      5.32407105	      0.09292257	     18.02269563	    -14.36147320	      0.00000000	     13.21019251	      1.22846067	     -2.38321296	      4.90399150	      0.08559080	     26.97757502	      5.57255988	      0.00000000	      0.22610241	     -0.07523544	      0.01168598	      0.41989478	     -0.10006313	      0.01241635	      0.37146365	     -0.18292744	      0.01241635	      0.25841244	     -0.18292744	      0.01022523	      0.20995870	     -0.15342010	      0.00949486	      0.12919492	     -0.11653969	      0.00876448	      1.61502690	     -0.85107830	      0.06499389	      0.00000000	      0.00000000	     27.08820470	      1.71635482	      8.06762715	     22.62272992	     -6.06142084	     68.45773879	     29.73584922	     24.84529241	     -6.87621229	      7.37005467	     22.84861803	     -5.46386309	     49.76940013	     33.46264113	     71.12098336	    -10.61463546	     -6.91617924
      3.53191489	      3.38153997	    -17.41664365	     98.77340609	      0.21642077	      0.81975382	      0.61705723	     13.55247403	      0.98826625	      7.21742768	      5.75683674	      0.10047576	     18.34147641	    -14.30070042	      0.00000000	     13.99089655	      1.27801641	     -3.12001555	      5.25867999	      0.09178128	     26.88361672	      6.01366297	      0.00000000	      0.29051259	     -0.13107802	      0.07833641	      0.53951094	     -0.17433377	      0.08323244	      0.47728314	     -0.31870310	      0.08323244	      0.33202684	     -0.31870310	      0.06854436	      0.26976999	     -0.26729430	      0.06364834	      0.16599890	     -0.20303985	      0.05875231	      2.07510240	     -1.48278078	      0.43568363	      0.00000000	      0.00000000	     27.45459043	      2.25741085	      6.94535202	     21.79124464	     -3.53241789	     62.65561014	     32.47806964	     21.90631490	     -6.52806484	      7.39692327	     22.07665165	     -3.92327728	     47.90633883	     35.25590520	     67.75885126	     -8.48511774	     -4.39724820
      3.55319149	      3.22466788	    -17.82568310	     98.53792224	      0.21810021	      0.81944130	      0.61842556	     14.26638099	      0.88969602	      7.42048033	      6.11836557	      0.10678562	     18.81629042	    -14.23844543	      0.00000000	     14.71402306	      1.20343762	     -6.00004864	      5.85870944	      0.10225377	     27.07689239	      9.36380138	      0.00000000	      0.34279670	     -0.18933669	      0.23823594	      0.63660775	     -0.25181780	      0.25312569	      0.56318070	     -0.46035324	      0.25312569	      0.39178235	     -0.46035324	      0.20845645	      0.31832102	     -0.38609539	      0.19356670	      0.19587404	     -0.29328254	      0.17867696	      2.44856256	     -2.14181456	      1.32499684	      0.00000000	      0.00000000	     27.69440798	      2.27284168	      4.91827582	     20.31785906	     -1.57781694	     54.85668614	     35.10269925	     25.58678717	     -6.41229922	      8.78351736	     21.51464090	     -2.93960586	     47.90623073	     36.69547885	     63.00629155	     -6.32816455	     -2.38788141
      3.57446809	      3.16527778	    -18.10069333	     98.37335389	      0.21916196	      0.81951941	      0.61932183	     14.79840659	      0.87688455	      7.54466464	      6.48619099	      0.11320539	     19.04552774	    -14.19816716	      0.00000000	     15.14650125	      1.17191540	     -6.61166059	      6.18497040	      0.10794810	     26.66092058	      9.60528325	      0.00000000	      0.38182414	     -0.21642426	      0.33342971	      0.70908561	     -0.28784426	      0.35426907	      0.62729888	     -0.52621394	      0.35426907	      0.43638681	     -0.52621394	      0.29175100	      0.35456189	     -0.44133235	      0.27091164	      0.21817431	     -0.33524118	      0.25007228	      2.72733163	     -2.44823449	      1.85443603	      0.00000000	      0.00000000	     27.75359918	      2.26066629	      4.04915886	     20.00241530	     -0.69158234	     53.00760654	     36.64671853	     24.58375112	     -5.90477183	      8.49152081	     20.63028145	     -2.54360868	     46.94572041	     38.03206761	     60.79854235	     -4.70529033	     -0.65333572
      3.59574468	      3.18853042	    -18.15454042	     98.36268306	      0.21948698	      0.82007412	      0.61968012	     14.97053500	      0.92095558	      7.51710492	      6.71668392	      0.11722825	     18.92700095	    -14.25515823	      0.00000000	     15.24044860	      1.10786821	     -6.95217545	      6.31543065	      0.11022506	     26.21670131	      9.63379841	      0.00000000	      0.38937874	     -0.21625762	      0.39558261	      0.72311526	     -0.28762263	      0.42030653	      0.63971033	     -0.52580878	      0.42030653	      0.44502096	     -0.52580878	      0.34613479	      0.36157710	     -0.44099254	      0.32141087	      0.22249101	     -0.33498305	      0.29668696	      2.78129340	     -2.44634944	      2.20011182	      0.00000000	      0.00000000	     27.76995365	      2.11800805	      3.82543460	     19.93709270	     -0.93688957	     53.14058381	     37.51634886	     24.60298578	     -5.45360798	      8.49793802	     20.34010426	     -2.72283555	     47.13551297	     38.84255534	     60.24735043	     -4.03448262	     -0.50223587
      3.61702128	      3.16727518	    -18.24032282	     98.19325422	      0.22029556	      0.82069199	      0.61970934	     15.27852551	      1.01419082	      7.94916895	      7.20079118	      0.12567751	     18.53376443	    -14.90215057	      0.00000000	     15.39951058	      0.94024322	     -8.62946224	      6.58010432	      0.11484449	     26.04334443	     11.46079207	      0.00000000	      0.40941796	     -0.22745766	      0.53807561	      0.76033009	     -0.30251869	      0.57170534	      0.67263276	     -0.55304055	      0.57170534	      0.46792378	     -0.55304055	      0.47081616	      0.38018552	     -0.46383166	      0.43718643	      0.23394142	     -0.35233191	      0.40355671	      2.92443153	     -2.57304653	      2.99261513	      0.00000000	      0.00000000	     27.71412425	      1.70334112	      2.85635245	     20.37760924	     -1.80185271	     55.79639117	     37.15269177	     23.81953653	     -4.02685556	      8.23140565	     21.46106493	     -3.53146594	     51.41359792	     38.80840902	     54.17289992	     -2.99608520	     -1.40638834
      3.63829787	      3.28093624	    -18.29189715	     98.42911852	      0.22008354	      0.82095143	      0.61893257	     15.36028750	      1.11942849	      7.97930026	      7.48493664	      0.13063679	     17.96249470	    -15.46574759	      0.00000000	     15.43285907	      0.82946146	     -8.97030288	      6.61117752	      0.11538682	     25.90174464	     12.12805369	      0.00000000	      0.43635965	     -0.21547001	      0.58140321	      0.81036350	     -0.28657511	      0.61774092	      0.71689526	     -0.52389377	      0.61774092	      0.49871544	     -0.52389377	      0.50872781	      0.40520357	     -0.43938644	      0.47239011	      0.24933590	     -0.33376304	      0.43605241	      3.11687333	     -2.43743980	      3.23359026	      0.00000000	      0.00000000	     27.72880787	      1.54654622	      2.66057383	     21.04430738	     -2.74312865	     59.93424652	     36.46284134	     23.54444555	     -2.52019496	      8.08252239	     22.20496071	     -4.15499657	     54.84056907	     38.77130587	     50.71730118	     -2.73935774	     -2.44155461
      3.65957447	      3.52341341	    -18.41289699	     98.84148229	      0.21932931	      0.82056479	      0.61771208	     15.44068321	      1.27480758	      7.72882678	      7.64623104	      0.13345191	     17.53543974	    -15.69539080	      0.00000000	     15.46555748	      0.70375523	     -8.67406574	      6.43320758	      0.11228065	     25.97619917	     12.36913455	      0.00000000	      0.48640493	     -0.18859868	      0.58599615	      0.90330259	     -0.25083625	      0.62262091	      0.79911466	     -0.45855884	      0.62262091	      0.55591219	     -0.45855884	      0.51274663	      0.45167562	     -0.38459044	      0.47612187	      0.27793178	     -0.29213936	      0.43949711	      3.47434177	     -2.13346604	      3.25913479	      0.00000000	      0.00000000	     27.76970385	      1.55652679	      2.57813901	     21.08677042	     -3.35190794	     62.26383288	     36.18800992	     24.40066594	     -1.86896608	      9.17876901	     22.12448873	     -4.33588573	     56.21508775	     38.67912539	     50.53628519	     -2.23628419	     -2.05851395
